<svg width="499" height="492" viewBox="0 0 499 492" fill="none" xmlns="http://www.w3.org/2000/svg">
<g clip-path="url(#clip0_35_19603)">
<path d="M478.787 245.275C496.448 238.606 502.818 214.253 494.421 197.437C486.025 180.332 466.916 170.764 448.096 169.025C429.276 166.995 410.456 171.634 392.216 176.563C381.503 179.462 367.895 181.492 360.946 172.794C353.708 164.096 358.919 150.76 364.42 141.192C370.211 131.335 376.291 119.158 370.211 109.301C363.552 98.5735 346.469 100.023 336.625 108.431C327.07 116.839 322.148 129.015 314.62 139.453C307.092 149.89 294.642 158.588 282.482 154.819C267.426 149.89 264.531 129.595 268.005 114.229C272.638 94.2247 283.351 75.9595 287.404 55.6648C291.168 35.3702 285.377 10.7267 266.268 2.60886C249.475 -4.34931 229.208 5.50809 219.653 21.164C210.388 36.8198 209.809 56.2447 212.415 74.5099C215.02 92.4851 220.522 110.17 221.969 128.436C222.838 138.293 222.548 148.73 218.205 157.718C214.441 166.416 205.755 173.954 195.911 174.244C164.931 175.403 168.116 130.465 159.719 110.75C157.982 106.691 155.666 102.343 152.191 99.7332C149.006 97.1239 144.663 95.9642 140.61 95.0944C127.87 93.065 115.131 96.834 104.997 104.662C91.968 114.519 83.8611 129.015 77.2018 144.091C72.5692 154.529 68.5157 165.546 68.8052 176.853C68.8052 188.16 74.0169 200.047 83.8611 205.845C93.7052 211.644 105.866 210.194 117.447 211.354C128.739 212.513 141.768 218.312 143.505 229.619C144.663 238.317 138.004 246.724 129.897 250.493C122.08 254.262 112.815 254.842 104.129 256.002C77.2018 259.771 51.1436 269.918 29.139 285.864C20.1634 292.242 11.7669 299.78 6.55524 309.638C1.63315 319.495 0.764547 331.962 6.84478 341.239C16.689 356.025 38.1146 356.025 55.7762 353.126C78.0704 349.357 100.654 343.559 119.474 331.382C128.449 325.584 136.846 318.046 146.98 314.277C157.113 310.508 169.853 311.087 176.802 319.205C186.356 330.512 179.697 347.328 173.906 361.244C168.116 374.87 166.089 394.585 179.408 400.964C190.699 406.472 204.018 396.905 209.519 385.598C215.02 374.291 216.758 361.244 223.417 350.807C230.076 340.37 246.001 333.411 254.976 342.109C263.952 350.807 258.74 365.883 254.108 377.48C243.395 406.182 241.947 438.654 250.633 467.936C254.108 480.113 263.083 494.029 275.533 491.71C286.825 489.68 291.168 475.764 293.195 464.457C298.117 437.204 302.749 409.661 307.672 382.409C309.988 369.652 312.304 356.315 320.411 346.168C328.518 336.021 343.863 330.222 354.866 337.47C365.289 344.429 367.895 360.084 379.187 365.883C393.663 373.421 411.035 357.475 412.773 341.239C414.51 325.004 406.982 309.348 402.928 293.402C398.875 277.456 400.033 257.452 413.931 248.754C432.461 236.287 458.23 253.103 478.787 245.275Z" fill="#FEDB86"/>
<path d="M362.104 402.413C360.078 400.384 357.472 397.485 355.156 395.165C352.839 392.846 348.786 394.006 348.207 397.195C344.443 415.46 346.759 434.595 354.287 451.7C356.603 456.339 359.499 461.268 364.421 462.717C370.211 464.457 376.292 460.398 379.477 455.469C384.978 447.062 384.109 435.754 379.766 426.477C375.423 417.199 369.053 409.661 362.104 402.413Z" fill="#FEDB86"/>
<path d="M487.184 287.603C484.289 283.254 479.077 281.514 474.155 280.644C464.6 278.905 454.467 279.485 445.202 282.674C442.885 283.544 442.017 285.863 443.175 287.892C445.781 291.951 450.124 298.33 453.019 300.939C457.362 304.998 462.574 308.187 468.654 309.347C474.445 310.217 481.104 308.767 485.157 304.418C489.211 299.489 490.369 292.531 487.184 287.603Z" fill="#FEDB86"/>
<path d="M170.432 59.1442C174.775 61.1737 179.408 57.9845 179.697 53.3458C179.987 48.707 179.987 44.0682 179.987 39.4294C179.987 37.11 179.697 34.7907 179.408 32.4713C179.118 30.4418 179.118 28.1224 178.539 26.093C177.96 24.3534 177.092 22.9038 175.933 21.7441C174.486 20.2945 172.169 19.1348 170.143 18.8449C166.379 18.265 162.325 19.1348 159.719 22.034C157.403 24.6433 156.535 28.4123 155.956 31.8914C155.666 33.631 155.666 35.3705 155.666 37.11C155.956 40.5891 156.824 44.0682 158.272 47.2574C160.878 52.476 165.221 56.5349 170.432 59.1442Z" fill="#FEDB86"/>
<path d="M439.409 125.826C442.594 122.637 445.779 117.998 444.042 113.649C442.594 110.17 438.541 108.72 435.066 109.01C431.592 109.3 428.117 111.33 425.222 113.359C417.405 118.868 408.719 132.204 404.086 140.032C402.638 142.351 404.955 145.251 407.56 144.671C419.721 141.192 430.723 134.813 439.409 125.826Z" fill="#FEDB86"/>
<path d="M48.2484 241.506C51.4333 239.476 50.5646 234.548 46.8007 233.678C44.774 233.098 43.0367 232.518 41.01 231.938C35.2193 230.199 29.7181 227.879 23.9274 226.72C18.1367 225.85 11.767 226.14 6.84488 229.619C1.92279 232.808 -0.97256 239.476 1.05418 245.275C2.79139 249.913 7.71349 252.813 12.6356 253.393C17.5577 253.972 22.4798 252.813 27.4019 251.653C33.7716 249.913 41.8786 245.275 48.2484 241.506Z" fill="#FEDB86"/>
<path d="M82.7034 422.417C82.4139 425.316 82.7034 428.216 83.2825 430.825C84.1511 433.724 85.3092 436.623 87.6255 438.653C91.3895 442.132 97.4697 442.712 102.102 440.972C107.024 439.233 110.788 435.174 113.394 430.825C117.448 424.157 119.764 416.329 121.791 409.081C124.107 401.253 126.423 393.425 128.16 385.307C129.029 381.828 129.608 378.349 130.187 374.58C131.056 370.231 125.844 367.622 122.659 370.521C113.973 378.639 105.866 387.626 98.0488 396.904C94.5744 401.253 91.0999 405.602 87.9151 410.24C85.8883 413.14 83.572 416.329 82.7034 419.808C82.993 420.678 82.7034 421.547 82.7034 422.417Z" fill="#FEDB86"/>
</g>
<defs>
<clipPath id="clip0_35_19603">
<rect width="498" height="492" fill="white" transform="translate(0.185547)"/>
</clipPath>
</defs>
</svg>
